<?xml version="1.0" ?><svg fill="none" height="24" viewBox="0 0 24 24" width="24" xmlns="http://www.w3.org/2000/svg"><path clip-rule="evenodd" d="M19 6H5C4.44772 6 4 6.44772 4 7V16C4 16.5523 4.44772 17 5 17H19C19.5523 17 20 16.5523 20 16V7C20 6.44772 19.5523 6 19 6ZM5 5C3.89543 5 3 5.89543 3 7V16C3 17.1046 3.89543 18 5 18H19C20.1046 18 21 17.1046 21 16V7C21 5.89543 20.1046 5 19 5H5Z" fill="black" fill-rule="evenodd"/><path clip-rule="evenodd" d="M3.10066 8.30842C3.20646 8.05335 3.49901 7.93235 3.75408 8.03816L11.4253 11.2203C11.7932 11.3729 12.2068 11.3729 12.5747 11.2203L20.2459 8.03816C20.501 7.93235 20.7935 8.05335 20.8993 8.30842C21.0051 8.56349 20.8841 8.85604 20.6291 8.96184L12.9579 12.144C12.3446 12.3984 11.6554 12.3984 11.0421 12.144L3.37092 8.96184C3.11585 8.85604 2.99485 8.56349 3.10066 8.30842Z" fill="black" fill-rule="evenodd"/></svg>